<?xml version="1.0" ?><!DOCTYPE svg  PUBLIC '-//W3C//DTD SVG 1.0//EN'  'http://www.w3.org/TR/2001/REC-SVG-20010904/DTD/svg10.dtd'><svg enable-background="new 0 0 100 100" height="100px" id="Layer_1" version="1.0" viewBox="0 0 100 100" width="100px" xml:space="preserve" xmlns="http://www.w3.org/2000/svg" xmlns:xlink="http://www.w3.org/1999/xlink"><path d="M76.666,89.999V16.667C76.666,13.002,73.664,10,70,10H16.667C13,10,10,13.002,10,16.667v66.665  c0,3.666,2.998,6.667,6.667,6.667H76.666z" fill="#E8EAF6"/><path d="M89.443,75.656v-0.014l-6.621,4.817l2.529,7.788c0.172,0.542,0,1.145-0.486,1.496  c-0.48,0.352-1.115,0.324-1.571-0.003l-6.628-4.81l-6.627,4.81c-0.456,0.327-1.092,0.354-1.572,0.01  c-0.485-0.358-0.657-0.961-0.482-1.503c-0.003,0,2.525-7.788,2.525-7.788l-6.617-4.812v0.008c-0.338-0.241-0.56-0.639-0.56-1.08  c0-0.742,0.603-1.346,1.341-1.346v-0.004h8.19l2.536-7.785c0.168-0.535,0.67-0.932,1.266-0.932c0.597,0,1.098,0.396,1.266,0.932  l2.537,7.785l8.189,0.004c0.738,0,1.342,0.604,1.342,1.346C90,75.02,89.778,75.416,89.443,75.656z" fill="#304FFE"/><path d="M64.023,47.643l-9.311-9.309l-3.535,3.535L59.311,50l-8.133,8.131l3.535,3.535l9.311-9.311  C65.325,51.055,65.325,48.945,64.023,47.643z" fill="#304FFE"/><path d="M35.489,41.869l-3.533-3.535l-9.313,9.309c-1.302,1.303-1.302,3.417,0,4.714l9.313,9.31l3.533-3.535  L27.357,50L35.489,41.869z" fill="#304FFE"/><polygon fill="#304FFE" points="42.481,36.666 47.52,36.666 44.185,63.334 39.146,63.334 "/><path d="M60,89.999H16.667c-3.67,0-6.667-3.001-6.667-6.667V16.667C10,13.002,13,10,16.667,10H70  c3.664,0,6.666,3.002,6.666,6.667V60H70V16.667H16.667v66.665H60V89.999z" fill="#304FFE"/></svg>